<svg xmlns="http://www.w3.org/2000/svg" viewBox="0 0 407.66 431.38"><defs><style>.cls-1{fill:#ef7633;}.cls-2{fill:#e4552b;}</style></defs><g id="Capa_2" data-name="Capa 2"><g id="Capa_1-2" data-name="Capa 1"><path class="cls-1" d="M115.71,372.94c.19.76.31,1.64.49,2.57a27.09,27.09,0,0,1,.21,3.12,12.22,12.22,0,0,0,0,1.6l.09,1.23c0,.59.1,1.18.12,1.77l.06,1.77c0,1,0,2.06.09,3.06a16.93,16.93,0,0,1-.15,3.09,1.73,1.73,0,0,0,0,.77,4.41,4.41,0,0,1,0,.89V393a2.34,2.34,0,0,0-.21,1.25l0,1.18a1.06,1.06,0,0,1,0,.42.87.87,0,0,0-.09.42,13.61,13.61,0,0,0-.33,3.15,3.38,3.38,0,0,1-.13,1,22.58,22.58,0,0,0-1.21,4.41,13.47,13.47,0,0,0-.23,1.55A4.94,4.94,0,0,1,114,408a3.45,3.45,0,0,0-.17.78l-.06.83a2.09,2.09,0,0,0-.1.6,2.61,2.61,0,0,1-.1.66l-.33,2.15-.08,1.13a14.26,14.26,0,0,1-.3,1.8c-.08.24-.1.48-.18.72l-.25,1.08a13.23,13.23,0,0,1-.36,1.68,4.75,4.75,0,0,1-.17.73.51.51,0,0,0-.08.3c-.07.12-.08.24-.14.3a1.2,1.2,0,0,1-.35.74c-.32.32-.34.56,0,.77,0,.06,0,.06,0,.12s0,.11.11.16c-.18,0-.42,0-.6-.07a1.39,1.39,0,0,0-1,.43,3,3,0,0,1-.45.39,2.07,2.07,0,0,1-1.38-1.91c0-.88-.06-1.77-.06-2.65-.06-1.65-.06-3.49,0-5.15s.16-3.09.17-4.09a14.25,14.25,0,0,1,0-1.6c.05-.72.1-1.43.21-2.15.16-1.43.19-2.73.21-3.92l0-1.82c0-1-.06-1.89,0-2.9.06-1.72.06-3.49.18-5.22.08-1.12.2-2.08.33-3.09.23-2.45.45-4.83.62-7.26a39.75,39.75,0,0,1,.84-5.21l.51-2.11c.11-.71.28-1.44.45-2.16-.3,0-.66,0-1,0s-.73,0-1,0c-1.45-.07-2.9,0-4.41,0a6.92,6.92,0,0,0-1.09.14,3.11,3.11,0,0,1-1.09.08,5.66,5.66,0,0,1-3-.73,2.17,2.17,0,0,1-.35-.27,1.53,1.53,0,0,1,1.25-.62l1.41-.28c.49-.1,1-.13,1.4-.22,1.15-.15,2.25-.35,3.41-.55a60,60,0,0,1,6.25-.7c.91,0,1.82-.08,2.73-.14a14.25,14.25,0,0,1,1.57-.18,6.38,6.38,0,0,0,1.52-.17,48,48,0,0,1,7-.58,1.52,1.52,0,0,1,1.06.34.45.45,0,0,0,.3.09,1,1,0,0,0,.29.16,1.43,1.43,0,0,1-.7.47c-.24.07-.49.21-.74.29a.23.23,0,0,0-.07.18c-.07.06-.07.18-.14.24a1.25,1.25,0,0,1-1.14.8,9.19,9.19,0,0,0-1.81.13c-.61.11-1.23.27-1.9.38-.43.09-.79.12-1.16.2a17.3,17.3,0,0,1-2.44.42,8.33,8.33,0,0,1-1.21.15,1.83,1.83,0,0,1-.55.1,1.83,1.83,0,0,0-.55.1C115.46,372.19,115.56,372.6,115.71,372.94Z"/><path class="cls-1" d="M136.2,394.9a2.18,2.18,0,0,0-.15.49c-.08.18-.09.3-.15.42a3.59,3.59,0,0,0-.49.92,10.53,10.53,0,0,1-.77,1.54.79.79,0,0,0-.33.44c-.07.18-.2.37-.28.55a.5.5,0,0,0-.13.25,3.3,3.3,0,0,1-.49.86l-.21.55c-.08.18-.28.43-.35.61a17.66,17.66,0,0,0-1.21,2.76l-.13.06c-.19.25-.33.5-.46.69a4.91,4.91,0,0,1-1.45,1.7c-.44.33-.82.6-1.21.92a4.42,4.42,0,0,1-1.44.93.67.67,0,0,0-.26.14,4.83,4.83,0,0,1-.79.18l-.74.23a1.53,1.53,0,0,1-1,0,5.83,5.83,0,0,0-.89-.23,3.72,3.72,0,0,1-1.93-.92,3.91,3.91,0,0,1-.93-2.24c0-.41-.12-.82-.16-1.23a4.73,4.73,0,0,1,0-1.3l.09-1.31a7,7,0,0,1,.1-1.48l.11-1.49a34.12,34.12,0,0,1,.52-4.94l.26-1.27a19.24,19.24,0,0,1,.48-2.52,17.11,17.11,0,0,1,.7-2.29,10.6,10.6,0,0,0,.43-1.1c.08-.18.2-.25.45-.27a3.46,3.46,0,0,0,.72,0,1.23,1.23,0,0,1,1.16.56,4.09,4.09,0,0,0,.21.46,1.8,1.8,0,0,1,.21.46,1.63,1.63,0,0,1,.15.52,4,4,0,0,1,0,.77,3.78,3.78,0,0,0,.06.82,6.53,6.53,0,0,1,0,1.54c-.09.54-.12,1-.16,1.55a3,3,0,0,1-.15,1.25.38.38,0,0,0,0,.36l0,.35a4.66,4.66,0,0,1,0,.83,5.32,5.32,0,0,1-.18.84,6.2,6.2,0,0,0-.19,1,8.9,8.9,0,0,1-.14,1.19l-.06.78-.13.12a2.62,2.62,0,0,1,0,1l-.24,1a.22.22,0,0,1,.05.17.24.24,0,0,0-.08.18,1.64,1.64,0,0,1,.09.53c0,.36-.11.72-.14,1.07a1,1,0,0,0,0,.6,5.77,5.77,0,0,1,0,1.71,2.93,2.93,0,0,0,.33,1.28.31.31,0,0,0,.29.09,2.07,2.07,0,0,0,1.31-.51l.57-.51.39-.39a1.18,1.18,0,0,0,.33-.43,29.71,29.71,0,0,0,2.85-3.7,4.05,4.05,0,0,1,.48-.87,4,4,0,0,0,.48-.86,8.76,8.76,0,0,0,1.09-1.85c.21-.43.48-.87.69-1.3a13.37,13.37,0,0,0,.57-1.28l.21-.43a1.33,1.33,0,0,0,.27-.43,2.26,2.26,0,0,1,1.51-.83A.88.88,0,0,1,136.2,394.9Zm-13-14.29c.07-.07.19-.08.37-.09s.18-.07.24,0a.51.51,0,0,0,.43,0l.48,0a1.34,1.34,0,0,1,1.59.53l-.26,1.08a7.78,7.78,0,0,1-.37,1.09,5.18,5.18,0,0,0-.59.64c-.06,0-.06,0-.12.07l-.67,0c-.48,0-1-.58-1.2-1a1.61,1.61,0,0,1-.34-1.22.6.6,0,0,0,0-.47.67.67,0,0,1,0-.48C123,380.68,123.08,380.68,123.2,380.61Z"/><path class="cls-1" d="M142.86,389.15a24.73,24.73,0,0,1,3.31-4.39,9.67,9.67,0,0,1,4.29-2.68,3.52,3.52,0,0,1,4.48,2.21,17.55,17.55,0,0,1,.56,2.44c.06.83.13,1.65.25,2.47a6.23,6.23,0,0,1,.05,1.06,8.47,8.47,0,0,0-.14,1.13,7.22,7.22,0,0,0,0,1.13,3.44,3.44,0,0,1-.07,1.13c-.08,1.18-.27,3-.42,4.4l.37-.26a1.64,1.64,0,0,0,.32-.2,29.27,29.27,0,0,1,3.79-2.59c.76-.47,1.51-.88,2.2-1.34l1.7-1a5,5,0,0,0,.95-.72.94.94,0,0,1,.92-.24c-.06.06,0,.17,0,.29s0,.17,0,.18a2.41,2.41,0,0,0-.77.76,3.26,3.26,0,0,1-1.22,1,15.54,15.54,0,0,1-3.06,2.53c-1.27.87-2.53,1.79-3.24,2.37a23.12,23.12,0,0,0-2.18,1.94,6.15,6.15,0,0,0-1.37,3.35,4.93,4.93,0,0,1-.92,1.9,3.9,3.9,0,0,0-.49,1,11.13,11.13,0,0,1-1,1.67,1.49,1.49,0,0,1-.76.53,3.41,3.41,0,0,1-1.15.85,2,2,0,0,0-1,1.14,3.53,3.53,0,0,0-.64.64,1.49,1.49,0,0,1-.76.53c-.07,0-.13,0-.13.07l-.19.13a1.31,1.31,0,0,1-.33.44,1.22,1.22,0,0,0-.33.44,5.89,5.89,0,0,1-2.19-1.44,1.26,1.26,0,0,1-.26-1.52A8.76,8.76,0,0,1,145.8,406a5,5,0,0,0,1.66-3.08,17.21,17.21,0,0,1,.51-2.23,28.79,28.79,0,0,0,.87-4.79c.06-.83.18-1.67.3-2.57.15-1.25.35-2.51.5-3.76l.43-3.7.05-.71a1.43,1.43,0,0,0-.13-.7,3.6,3.6,0,0,0-1.7,1.13,23.29,23.29,0,0,0-3.64,5.53c-.49,1-1.16,2-1.77,3a8.09,8.09,0,0,0-1.35,3c-.18.9-.36,1.8-.49,2.69s-.42,1.81-.66,2.72a6.92,6.92,0,0,0-.2,1.07c-.09.42-.11.78-.2,1.14l-.74,2.9a7.87,7.87,0,0,1-.91,4.56,6.46,6.46,0,0,0-.23,2.38,10.93,10.93,0,0,1,0,2.43,4.16,4.16,0,0,0-.12.77c-.07.25-.09.48-.17.78a7.68,7.68,0,0,0-.26,2.09,12.84,12.84,0,0,1-.15,2.14l-.09,1.25a7.59,7.59,0,0,1-.14,1.25,2.09,2.09,0,0,1-.1.6l-.23.73a.18.18,0,0,1-.05-.18.26.26,0,0,0-.11-.16c-.22.54-.37,1-.58,1.46-.14.19-.21.31-.15.3a1,1,0,0,0-.53.69,6.15,6.15,0,0,1-.4,1.45c-.07.19-.25.26-.5.34-.07.06-.13.06-.13.12l-.2.25c-.58.58-1.13.68-1.7.19a3.4,3.4,0,0,1-.78-.89.38.38,0,0,1-.11-.23c.13-.89.24-1.61.3-2.5.13-1.14.33-2.27.41-3.4.17-1.55.27-3.1.32-4.7l.37-8a16.55,16.55,0,0,1,.16-2.32c.1-1.48.17-3.32.24-5.28s.15-3.85.33-5.58l.17-2.55.16-2.38c.06-.77,0-1.6,0-2.37l-.1-1.29a6.21,6.21,0,0,1,0-2.78c.1-.48.25-1,.35-1.51.08-.3.27-.43.69-.46l1.26.08a2.42,2.42,0,0,1,1.67,1.18,3.24,3.24,0,0,0,.62.66,7.8,7.8,0,0,0,.91.76,4.67,4.67,0,0,1,1.56,1.78c.16.4.25.81.4,1.21l.14.58a.21.21,0,0,0,.18.05C142.11,390.44,142.51,389.82,142.86,389.15Zm3.27,19c-.06.06-.12.13-.19.13l-.13.19-1,2c0,.18,0,.35,0,.41s0,.12,0,.11.06.06.06.12A3.08,3.08,0,0,0,146.13,408.18Z"/><path class="cls-1" d="M178.59,391.77a2.12,2.12,0,0,0-.15.48,4.18,4.18,0,0,1-.15.43,3.54,3.54,0,0,0-.48.92,9.92,9.92,0,0,1-.77,1.53.86.86,0,0,0-.33.44c-.08.18-.21.37-.28.55a.49.49,0,0,0-.14.25,3.25,3.25,0,0,1-.48.86l-.22.55c-.07.19-.27.44-.34.62a16.36,16.36,0,0,0-1.22,2.75l-.12.07c-.2.25-.34.5-.47.68a4.8,4.8,0,0,1-1.44,1.71c-.45.32-.83.59-1.21.91a4.56,4.56,0,0,1-1.45.94.5.5,0,0,0-.25.13,4.06,4.06,0,0,1-.8.18l-.74.23a1.64,1.64,0,0,1-1,0,4.17,4.17,0,0,0-.89-.23,3.71,3.71,0,0,1-1.92-.93,3.92,3.92,0,0,1-.94-2.23c0-.41-.12-.82-.15-1.23a4.8,4.8,0,0,1,0-1.31l.09-1.3a6,6,0,0,1,.1-1.49l.1-1.48a34.4,34.4,0,0,1,.52-4.95l.27-1.26a18.59,18.59,0,0,1,.47-2.52,17.24,17.24,0,0,1,.7-2.3c.14-.31.29-.67.44-1.1.07-.18.2-.25.44-.26a2.89,2.89,0,0,0,.72,0,1.26,1.26,0,0,1,1.17.57,3.22,3.22,0,0,0,.21.45,4.09,4.09,0,0,1,.21.46,1.39,1.39,0,0,1,.14.52,3.33,3.33,0,0,1,0,.77,3.73,3.73,0,0,0,.06.82,6.54,6.54,0,0,1,0,1.54,13.85,13.85,0,0,0-.17,1.55,3.06,3.06,0,0,1-.14,1.26.37.37,0,0,0,0,.35l0,.36a3.83,3.83,0,0,1,0,.83,5.57,5.57,0,0,1-.18.84,7.47,7.47,0,0,0-.19,1,7.79,7.79,0,0,1-.14,1.19l-.05.77-.13.13a3.1,3.1,0,0,1,0,1l-.25,1c.06.05,0,.11,0,.17a.27.27,0,0,0-.07.19,1.53,1.53,0,0,1,.08.52c0,.36-.11.72-.13,1.08a.93.93,0,0,0,0,.59,5.45,5.45,0,0,1,0,1.71,3,3,0,0,0,.33,1.28.33.33,0,0,0,.3.1,2.1,2.1,0,0,0,1.3-.51l.58-.52.38-.38a1.48,1.48,0,0,0,.34-.44,29.84,29.84,0,0,0,2.84-3.7,4.23,4.23,0,0,1,.48-.86,4.05,4.05,0,0,0,.48-.87,8.28,8.28,0,0,0,1.09-1.85c.21-.43.49-.86.7-1.29s.35-.8.57-1.29l.21-.43a1.79,1.79,0,0,0,.27-.43,2.23,2.23,0,0,1,1.5-.82A.85.85,0,0,1,178.59,391.77Zm-13-14.3c.06-.06.18-.07.36-.09s.19-.07.24,0a.55.55,0,0,0,.43,0l.48,0a1.36,1.36,0,0,1,1.59.53l-.25,1.09a8.33,8.33,0,0,1-.38,1.09,5,5,0,0,0-.58.63c-.06,0-.06,0-.13.07l-.66.05c-.49,0-1-.57-1.2-1a1.51,1.51,0,0,1-.34-1.21.67.67,0,0,0,0-.48.64.64,0,0,1,0-.47C165.35,377.55,165.47,377.54,165.6,377.47Z"/><path class="cls-1" d="M184.31,399a13.13,13.13,0,0,1-1.42-1.37l-1.47-1.31a20.12,20.12,0,0,1-3.75-4.22,9,9,0,0,1-2.09-5.64,5.19,5.19,0,0,1,.28-1.32,8.56,8.56,0,0,1,2.13-3.88,5,5,0,0,1,3.19-1.66,2.7,2.7,0,0,1,1.19.15,3.26,3.26,0,0,1,.66.13,5.41,5.41,0,0,1,1.93.8c.52.32.5.61-.13,1a5.63,5.63,0,0,0-.86.36,5.9,5.9,0,0,1-.93.3,3.56,3.56,0,0,0-.63.34,5.54,5.54,0,0,1-.65.7,2.65,2.65,0,0,0-.48.87,1.85,1.85,0,0,1-.34.67,2.72,2.72,0,0,0-.23,1.56c0,.17.16.34.2.51a.89.89,0,0,0,.27.46c.06.05.06.05.06.11a2.68,2.68,0,0,0,.6.9,10.38,10.38,0,0,1,.72.83,1,1,0,0,0,.29.22l.28.28a10.72,10.72,0,0,0,1.66,1.29c.51.44,1.08.93,1.59,1.42l.84.88.85.89a5.45,5.45,0,0,1,.5.61,4.65,4.65,0,0,0,.5.62,1.39,1.39,0,0,0,.34.27l.34.32a5,5,0,0,0,.95-.72,1.87,1.87,0,0,0,.45-.38,3.66,3.66,0,0,0,.9-.78,10.73,10.73,0,0,1,1.36-1.4l.64-.58c.33-.32.71-.7,1.1-1a6,6,0,0,0,.91-1.07l.46-.45a.67.67,0,0,1,.73-.17,1.16,1.16,0,0,0,.48.08c.3,0,1.14.1.68.66l-.2.19a.63.63,0,0,0-.21.43.76.76,0,0,1-.39.45,1.2,1.2,0,0,0-.44.26,3,3,0,0,1-.45.39,2.79,2.79,0,0,0-.52.51,3.29,3.29,0,0,1-.46.57l-.51.51a6.12,6.12,0,0,1-.59.64,5.54,5.54,0,0,1-.78.88c-.26.2-.51.33-.6.75,0,.06,0,.06-.07.13L193,396l-.38.27-.58.57-.58.64c-.26.19-.27.37-.05.65l.44.68.16.22a.41.41,0,0,0,.11.23,3.79,3.79,0,0,1,.65,1.07,10.41,10.41,0,0,0,.39,1.28,3.1,3.1,0,0,1,0,1.24,1.88,1.88,0,0,0,.1,1.17,6.71,6.71,0,0,1,.22,3.83,35.09,35.09,0,0,1-1.06,3.92c-1,2.61-2.79,3.87-4.78,5.68-1.23,1.21-3.48,1.55-4.93,1.6a5.79,5.79,0,0,1-4.09-1.88c0-.18-.17-.23-.35-.27a1.8,1.8,0,0,1-.62-.61,1.57,1.57,0,0,0-.45-.44.83.83,0,0,1-.32-.62c-.34-3,1.05-6.47,3.34-9.18a5.6,5.6,0,0,0,.86-1.13l.59-.63a4.81,4.81,0,0,1,.52-.63c1-1,1.88-1.86,2.73-2.87l.52-.51A13.19,13.19,0,0,0,184.31,399Zm1.51,3.44c-.46.5-.85.95-1.11,1.2s-.65.64-.9.9a1.92,1.92,0,0,0-.46.44,1.54,1.54,0,0,1-.45.45,14.92,14.92,0,0,0-2.27,2.3,6.79,6.79,0,0,0-.87,1.24V409a1.56,1.56,0,0,0-.34.56l-.22.61-.23.67-.23.72a5.35,5.35,0,0,0-.27,1.32c-.07.95-.12,1.73.34,2.05a1.54,1.54,0,0,0,1.51-.05.37.37,0,0,1,.25-.08c.06,0,.18,0,.24-.08a5,5,0,0,0,2-.92l1-.66.94-.66a1.94,1.94,0,0,1,.82-.42,6.07,6.07,0,0,0,1.26-.8c.13-.13.26-.32.46-.57a9.12,9.12,0,0,0,.66-4.42,7.53,7.53,0,0,0-.3-1.81.41.41,0,0,1,0-.24.39.39,0,0,0,0-.23,5.18,5.18,0,0,0-.83-2l-.17-.1A2.49,2.49,0,0,0,185.82,402.41Z"/><path class="cls-1" d="M207.25,388.64a3,3,0,0,1,2.85-2.87,2.15,2.15,0,0,1,2.48,2.48,3.1,3.1,0,0,1-2.91,2.87A2.19,2.19,0,0,1,207.25,388.64Z"/><path class="cls-1" d="M228.3,363.79a27.66,27.66,0,0,1,6.51-2.67,23.61,23.61,0,0,1,9.22-.92,12.8,12.8,0,0,1,3.68.79l1.06.46c.29.15.64.36,1,.51.17.05.29.16.46.21a1.19,1.19,0,0,0,.47.26c1.48.42,3.06,1.9,4.14,2.94a12.55,12.55,0,0,1,2.62,3.95,21.89,21.89,0,0,1,1.73,9.8,32.61,32.61,0,0,1-3.67,13.11,34.63,34.63,0,0,1-10.33,11.82c-4.37,3.1-8.87,4.62-12.61,4.6a12,12,0,0,1-9.13-3.88,9.67,9.67,0,0,1-2.21-4.63,9.77,9.77,0,0,1-.15-2.29,14.69,14.69,0,0,1,.34-2.27,11.38,11.38,0,0,1,.49-1.93,5.54,5.54,0,0,1,2.69-3.16l.64.31a4.88,4.88,0,0,1-.73.94,3.34,3.34,0,0,0-.93,2.14,3.39,3.39,0,0,0-.13,1.13,12.32,12.32,0,0,0,1.47,6.63c1.35,2.33,4.43,3,7.07,3.21a6.54,6.54,0,0,0,4.12-1.14,30.6,30.6,0,0,0,3.61-2.63,49.32,49.32,0,0,0,7.66-7.07,20.14,20.14,0,0,0,4.17-9.06c.49-2.64.85-5.27,1.09-7.94a11.66,11.66,0,0,0-.57-4.87l-.75-2.25a9.1,9.1,0,0,0-3.51-5,15,15,0,0,0-4.6-2.32,10.55,10.55,0,0,0-4-.42h-.18a.23.23,0,0,1-.19.07c.06,0,0,.06-.19.14a6.44,6.44,0,0,0,.34,1.15,9.73,9.73,0,0,1,.72,3.62,25.94,25.94,0,0,1-.25,5.34c-.11.78-.28,1.56-.46,2.34a17.16,17.16,0,0,0-.52,2.4,36.54,36.54,0,0,1-1.07,4.93c-.63,2.17-1.2,4.4-1.65,6.57a17.3,17.3,0,0,0-.45,3,15.94,15.94,0,0,1-.44,2.93,8,8,0,0,0-.26,2.91,10.47,10.47,0,0,1-.64,3.24v.06l-.06.07a2.39,2.39,0,0,0-.83,1.54c-.27,1.26-1.29,2.16-1.81,1.79a3.65,3.65,0,0,1-1.12-2.17L230,401a32.6,32.6,0,0,1-.15-6.49c.37-5.41.87-11,1.68-16.68.39-3.05.84-6.1,1.29-9.15.12-.83.3-1.67.42-2.51s.29-1.62.4-2.45a.28.28,0,0,0,.08-.19c-.06-.05-.05-.11-.05-.23a4.83,4.83,0,0,1-.79.18l-.68.22a19.53,19.53,0,0,0-2.61,1.2l-.19.13a.28.28,0,0,1-.19.08,6.79,6.79,0,0,0-1.51.88l-1.34,1.16c-.19.19-.32.26-.44.21a1.47,1.47,0,0,1-1.39-.78A29.17,29.17,0,0,1,228.3,363.79Z"/><path class="cls-1" d="M281.52,383.74a1.29,1.29,0,0,1-.27.49,9.46,9.46,0,0,0-1.29,2,.52.52,0,0,0-.13.24,1.68,1.68,0,0,1-.37.92,3.54,3.54,0,0,0-.48.92,1.62,1.62,0,0,0-.48.75,4.44,4.44,0,0,1-.53.8,21.75,21.75,0,0,0-1.33,1.82,33.75,33.75,0,0,1-2.6,3.62A11.58,11.58,0,0,1,272.3,397l-1.53,1.17a11.27,11.27,0,0,1-3.2,2,5.17,5.17,0,0,1-3.15.17l-1.31-.26a.57.57,0,0,0-.23-.1,5.8,5.8,0,0,1-1.82-1.52c-1.31-2-1-4.42-.8-5.91,0-.72.16-1.49.27-2.27l.29-1.5c.09-.48.12-1,.22-1.44a2.35,2.35,0,0,1,.16-.66c.31-1,.55-1.93.81-3a28.8,28.8,0,0,1,1.51-3.66c.07-.18.2-.3.28-.49a3.86,3.86,0,0,0,.81-1.24c0-.06,0-.06.06-.12v-.06a5.82,5.82,0,0,1,1.66-2.25,1.31,1.31,0,0,1,.44-.33,11.9,11.9,0,0,1,3.29-1.37,3.78,3.78,0,0,1,1.95-.32,7.62,7.62,0,0,1,1,0h.18a.2.2,0,0,0,.18,0c1.94-.08,2.42,1.66,2.1,3.63a9.45,9.45,0,0,1-2.57,5,4.09,4.09,0,0,0-1,.72.39.39,0,0,1-.31.2,3.14,3.14,0,0,0-.44.27c-.19.07-.38.21-.56.28l-1.06.43c-.37.15-.74.29-1.05.38-1.16.26-1,.19-1.34,1.1a4,4,0,0,0-.17.78,19.94,19.94,0,0,1-.36,2.57,26.64,26.64,0,0,0-.81,5.62c0,1.77.78,2.72,1.78,3.06a1,1,0,0,0,.79,0,5.76,5.76,0,0,0,1.62-.89c.76-.53,1.46-1.05,2.16-1.58a19.2,19.2,0,0,0,2-2.33c.33-.44.67-1,1-1.56l.27-.37.19-.25a11.34,11.34,0,0,0,1.4-1.88,23,23,0,0,1,1.28-1.93,4,4,0,0,0,.34-.55,14.47,14.47,0,0,1,1.75-2.73.91.91,0,0,1,.7-.53C281.24,383.4,281.35,383.57,281.52,383.74Zm-7.78-7.7a.3.3,0,0,0-.17-.29,2,2,0,0,0-2.12-.67,1.89,1.89,0,0,0-1.46,1.18l-.43,1a3.8,3.8,0,0,0-.38,1.15,1.11,1.11,0,0,1-.23.61,3.34,3.34,0,0,0-.37,1l-.25,1a6.35,6.35,0,0,1-.41,1.51c-.2.43-.34.61-.18,1a7.13,7.13,0,0,0,4.43-2.28c.59-.76,1.07-1.5,1.61-2.31a.51.51,0,0,0,.09-.48,1.54,1.54,0,0,1,.17-.84c.07-.06.08-.18.15-.31a.46.46,0,0,1,.08-.3A2,2,0,0,1,273.74,376Z"/><path class="cls-1" d="M278.62,388.27a2.55,2.55,0,0,0,.17-.66,2.18,2.18,0,0,1,.1-.66,14.76,14.76,0,0,1,.88-4,12.13,12.13,0,0,0,.57-2.11.23.23,0,0,0,.07-.18.17.17,0,0,1,.07-.12,15.37,15.37,0,0,1,.81-2.08c.35-.73.76-1.47,1.11-2.15.2-.31.34-.61.54-.86l.47-.81a3.35,3.35,0,0,0,.15-.31,5.12,5.12,0,0,1,1.61-1.53,20.09,20.09,0,0,1,2.37-1.18l.68-.23.68-.23c.18-.07.42-.09.67-.17a2.24,2.24,0,0,0,.67-.11,2.74,2.74,0,0,1,.73-.11,5.67,5.67,0,0,1,3.46.51,1.27,1.27,0,0,1,.52.32.55.55,0,0,1,.27.51c0,.24.15.46.19.7a2.11,2.11,0,0,1,.16,1.23.23.23,0,0,0,0,.29A3.84,3.84,0,0,1,295,376a1.74,1.74,0,0,1-1.61.65c-.18-.05-.23-.16-.16-.29a2.09,2.09,0,0,0,.1-.6,2.33,2.33,0,0,1,.16-.6,1.4,1.4,0,0,0,.11-.72c-.05-.17,0-.41-.07-.64,0-.42-.38-.62-.61-.84a2.65,2.65,0,0,0-.47-.2,3.4,3.4,0,0,1-.46-.21c-.3-.15-.82-.41-1.14-.15s-.32.26-.44.33a4.57,4.57,0,0,0-.91.83,6.66,6.66,0,0,1-1.21,1.93,4.29,4.29,0,0,0-1,1.61,3.81,3.81,0,0,1-.36.85,6.13,6.13,0,0,0-.36.91,2,2,0,0,0-.15.43c-.23.78-.47,1.57-.76,2.36a6.68,6.68,0,0,0-.53,1.58,2.7,2.7,0,0,1-.23.61,9.13,9.13,0,0,0-.54,1.75,10.13,10.13,0,0,1-.49,1.87.29.29,0,0,0-.07.24c-.13.9-.24,1.67-.29,2.45a1.65,1.65,0,0,0,0,.77l0,.29a1.6,1.6,0,0,0-.05.72,2.74,2.74,0,0,1,0,.7l-.05.66a2.06,2.06,0,0,0,0,1.24l.15.34a1.31,1.31,0,0,0,.09.47l.09.46a2.2,2.2,0,0,0,.64,1.26,1,1,0,0,0,1.13.15,3.2,3.2,0,0,1,.56-.16,10.74,10.74,0,0,0,3-1.35,4,4,0,0,0,1.1-1c.52-.57,1-1.08,1.55-1.59.33-.32.71-.7,1-1.08l1-1,1.42-1.53c.46-.5.92-1.07,1.38-1.64.07-.06.07-.06.07-.12l.07-.06a17.2,17.2,0,0,0,2.37-3,1.86,1.86,0,0,0,.2-.31,3.15,3.15,0,0,1,.55-.93,1.59,1.59,0,0,1,.4-.56,1.17,1.17,0,0,1,1.24-.62c.54.13.37.8-.22,1.49a3.83,3.83,0,0,0-.46.57l-1,1.08a1.94,1.94,0,0,0-.59.81c0,.18-.28.43-.53.69a1.87,1.87,0,0,0-.33.38.5.5,0,0,1-.09.42,1.63,1.63,0,0,0-.33.38,2.74,2.74,0,0,1-.34.55l-.4.56-.2.26a3,3,0,0,0-.64.64,8.74,8.74,0,0,1-.59.69l-.07.06a4.73,4.73,0,0,1-1.11,1.27,8.14,8.14,0,0,0-1.28,1.16l-.6.75a9,9,0,0,1-2.45,2.37,17.24,17.24,0,0,1-3.76,2.05,26.4,26.4,0,0,1-3.26,1,2.81,2.81,0,0,1-.9-.05,2.35,2.35,0,0,0-.71-.24,5.19,5.19,0,0,1-1.55-1l-.28-.4a4.53,4.53,0,0,1-1.28-2.44,1.61,1.61,0,0,1-.09-.41l-.15-.4a9.73,9.73,0,0,1-.06-2.72l.1-1.37A5.9,5.9,0,0,1,278.62,388.27Z"/><path class="cls-1" d="M307.22,374.51c-.19.19-.26.31-.32.37a1.44,1.44,0,0,1-.6.76,1.56,1.56,0,0,1-.33.5,4.73,4.73,0,0,0-.69,1.23,7.56,7.56,0,0,0-.37.91c-.38,1.27-.78,2.6-1.29,3.88a5.12,5.12,0,0,0-.44,1.28,17.49,17.49,0,0,1-1,2.55,5.89,5.89,0,0,0-.51,1.28c0,.06-.07.12-.14.31a3.42,3.42,0,0,0-.64,2.23c0,.41,0,.83,0,1.24-.06.77-.11,1.55.41,1.92a2,2,0,0,0,.4.33l.34.33a.83.83,0,0,0,.89.11l1.55-.65a5.59,5.59,0,0,0,1.45-.87,3.83,3.83,0,0,1,.76-.53,3.68,3.68,0,0,0,.7-.53,1.31,1.31,0,0,0,.44-.33,1.83,1.83,0,0,1,.33-.37,9.31,9.31,0,0,0,1.38-1.64c.06-.07.06-.07.06-.13a4.33,4.33,0,0,1,.62-1.05.37.37,0,0,0,.07-.24.24.24,0,0,1,.08-.18,2.16,2.16,0,0,1-.53-.26l-.52-.32a8.39,8.39,0,0,1-2.5-2.18,11.76,11.76,0,0,1-.76-1.18,7.77,7.77,0,0,1,.35-5.94c.21-.43.48-.86.69-1.29a.3.3,0,0,0,.07-.13,1.63,1.63,0,0,0,.63-.46,1.49,1.49,0,0,1,.69-.4,5.09,5.09,0,0,0,.74-.18,2.6,2.6,0,0,1,2.13.5c.88.4,1.88.74,2.3,1.66a4.07,4.07,0,0,1,.51,2.27,3.58,3.58,0,0,0,.08.46,1.3,1.3,0,0,0,0,.48,7.4,7.4,0,0,1,0,2.3,3.85,3.85,0,0,1-.29.85,2.89,2.89,0,0,0-.52,1.4,3.87,3.87,0,0,1-.17.67.3.3,0,0,1,.24,0,.2.2,0,0,0,.18,0,7.6,7.6,0,0,0,1.22-.21,15.4,15.4,0,0,0,6.71-3.92A1.31,1.31,0,0,0,322,381l.2-.25c0-.06.07-.06.13-.13a1,1,0,0,1,1.36.37,9.73,9.73,0,0,1-1.77,2.14,11.63,11.63,0,0,1-2.22,1.65,8.63,8.63,0,0,0-1.63.83,11.28,11.28,0,0,1-3,1.41,3.94,3.94,0,0,1-1.45.16,1.06,1.06,0,0,0-.61,0l-.67.22c-.49.1-.86,1-1.14,1.57l-.42.92a3.67,3.67,0,0,1-.92,1.13,4.89,4.89,0,0,0-1,1l-.66.75a3,3,0,0,1-.71.71,4.83,4.83,0,0,0-.77.64,14.12,14.12,0,0,1-2,1.33,2.44,2.44,0,0,1-2.53.07c-.41-.15-.82-.35-1.23-.5a8.78,8.78,0,0,1-3.92-3.55,6.9,6.9,0,0,1-.47-2.75,13.77,13.77,0,0,1,.1-3.2,20.78,20.78,0,0,1,1.86-5.16,12.22,12.22,0,0,1,1.91-3.28,8.84,8.84,0,0,0,.65-.69,5.72,5.72,0,0,1,1.3-1.34,4.19,4.19,0,0,0,.63-.46,7.21,7.21,0,0,1,1.07-.73l1.08-.73a1.25,1.25,0,0,1,.92-.25,4,4,0,0,1,1.66.47A1.52,1.52,0,0,1,307.22,374.51Zm4.39,9.78c0-.18,0-.29.09-.36a3.41,3.41,0,0,0,.63-2.23,12.79,12.79,0,0,1,0-1.48,3.21,3.21,0,0,0-.32-1.4,4.36,4.36,0,0,1-.68-1.49v-.06c-.05,0-.11,0-.11-.11a.2.2,0,0,0-.18,0c-.3,0-.38.32-.4.56a1.86,1.86,0,0,1-.2.31,7.78,7.78,0,0,0-.74,2,2.56,2.56,0,0,1-.15.36,3.86,3.86,0,0,0,.61,4.27,2.2,2.2,0,0,0,.46.38.68.68,0,0,0,.46.26C311.39,385,311.65,384.7,311.61,384.29Z"/><path class="cls-2" d="M125.84,363.43c-2.7.2-4.28-.9-4.76-3.31a76.79,76.79,0,0,1-1.52-19.44c.36-6,.58-9.76.68-11.21q1.45-21,6.19-51.38c.26-1.64.42-2.88.48-3.7,0-.52,0-.77-.17-.76s-.4.27-.74.77a158.23,158.23,0,0,0-11.62,21.74q-9.31,21.14-12.58,39.08A125.65,125.65,0,0,0,100,349.35c-.17,2.34-.71,3.94-1.63,4.78a5.41,5.41,0,0,1-3.33,1.42c-2.69.19-4.27-.91-4.75-3.32q-1.92-9.9-.76-26.82,1.61-23.49,6.71-56.53.69-4.38.81-6.05c.06-.86,0-1.28-.25-1.26s-.8.56-1.47,1.61a129.78,129.78,0,0,0-10.52,19.6,160.38,160.38,0,0,0-11.09,34.69,226.06,226.06,0,0,0-3.59,26.76c-.18,2.6-.73,4.37-1.67,5.31a5,5,0,0,1-3.33,1.55q-4,.3-4.67-3.71a84.44,84.44,0,0,1-.89-19.14q.6-10.42.9-14.84,1.71-24.94,5.35-50.76a6.23,6.23,0,0,1,4.8-5.58,20.88,20.88,0,0,1,6.86-.59A3.81,3.81,0,0,1,80,257.54a4,4,0,0,1,.78,3.16c-.11,1.6-.36,3.49-.73,5.66q-1.5,8.73-2.94,18.1a153.74,153.74,0,0,1,12-25.76q8.49-14,16.33-14.54,4.09-.3,6.1,1.52a6.81,6.81,0,0,1,2.23,4.61,33.74,33.74,0,0,1,.08,5,45.73,45.73,0,0,1-.7,5.27q-4.2,22.35-6.88,38.32a150.87,150.87,0,0,1,12.42-26.79q8.43-13.95,16.34-14.54,4.09-.3,6.09,1.52a6.74,6.74,0,0,1,2.23,4.56,32.39,32.39,0,0,1,.1,4.85,49.61,49.61,0,0,1-.72,5.44q-3.93,20.94-7.21,41.65t-4.73,41.7c-.16,2.34-.71,3.94-1.63,4.78A5.32,5.32,0,0,1,125.84,363.43Z"/><path class="cls-2" d="M183.72,336.27a7.77,7.77,0,0,1-6.07-1.82,13.09,13.09,0,0,1-3.5-5.83,34.83,34.83,0,0,1-1.49-8.35,50.79,50.79,0,0,1-3.28,7,22.54,22.54,0,0,1-4.77,5.93,11.18,11.18,0,0,1-6.78,2.75q-4.72.34-7.05-1.61a11.23,11.23,0,0,1-3.37-5.73,33.74,33.74,0,0,1-1.06-8.83c0-3.39.12-7.05.39-11q1.11-16.19,3.71-19.54c1.37-1.77,3.57-2.76,6.6-3q3.64-.27,5.08.63a3.14,3.14,0,0,1,1.28,3.18,15.85,15.85,0,0,1-.32,2.24,182.07,182.07,0,0,0-4.19,27.25,17.38,17.38,0,0,0,.29,5.72,2.24,2.24,0,0,0,2.59,1.73q3.48-.25,8.17-15.49T175,290.55a7.51,7.51,0,0,1,1.46-4.33,7.19,7.19,0,0,1,3.24-2.24,16.08,16.08,0,0,1,4.3-.87q3.65-.27,5.05.62a3.21,3.21,0,0,1,1.26,3.19q-.08,1-1.46,8-2.53,14.73-3.23,24.84c-.4,5.88-.06,8.78,1,8.7q2.63-.19,8.26-11.44,4.13-8.31,7.58-17.33A2.42,2.42,0,0,1,204.8,298a2.23,2.23,0,0,1,2.1.79,2.1,2.1,0,0,1,.36,1.36q-.06.84-4.14,10.75Q192.89,335.6,183.72,336.27Z"/><path class="cls-2" d="M237.45,333.41q-6.6.48-8.87-5.15t-1.52-16.52q.28-4.29.81-8.61c.41-3.25.73-6.42.94-9.51.14-2-.19-3-1-2.92q-1.59.12-3.66,3.46a57.24,57.24,0,0,0-4.11,8.33q-2,5-3.79,10.27t-2.86,9.57a38.34,38.34,0,0,0-1.24,6.12c-.16,2.34-.71,3.92-1.63,4.73a5.53,5.53,0,0,1-3.32,1.36c-2.69.19-4.28-.85-4.76-3.15q-1.63-7.61-.3-27,.75-10.87,1.61-16.11a6.35,6.35,0,0,1,1.42-3.27,5.55,5.55,0,0,1,2.6-1.58,17.37,17.37,0,0,1,3.43-.59,22.39,22.39,0,0,1,3.17,0,4.3,4.3,0,0,1,2.49.9,3.09,3.09,0,0,1,.83,2.74,30.64,30.64,0,0,1-.64,4.33q-1.2,5.87-2.12,11.93,8.69-22.59,19.32-23.37a6.39,6.39,0,0,1,5.13,1.48,8.83,8.83,0,0,1,2.36,4.8,27,27,0,0,1,.32,6.86q-.49,7.2-1.4,15.37-.76,7.17-1.15,12.64-.35,5.13,1,5c1.74-.13,4.3-3.23,7.65-9.29a147,147,0,0,0,9.29-20.67,2.49,2.49,0,0,1,2.38-1.74,2.19,2.19,0,0,1,2,.8,2.31,2.31,0,0,1,.36,1.41,3.5,3.5,0,0,1-.18.91q-7.29,19.69-13.31,28.25Q243.31,333,237.45,333.41Z"/><path class="cls-2" d="M291.28,328.32q-11.37.84-11.23-21.88a76.61,76.61,0,0,1-6,13.16q-5.42,9-12.3,9.46c-2.55.19-4.47-.31-5.79-1.49a8.78,8.78,0,0,1-2.64-4.72,20.79,20.79,0,0,1-.47-6.07,82.17,82.17,0,0,1,1.27-9.4,76.39,76.39,0,0,1,2.71-10.25,48.13,48.13,0,0,1,4.36-9.43,25.44,25.44,0,0,1,6.23-7.12,15,15,0,0,1,8.28-3.14A8,8,0,0,1,283,281a8.66,8.66,0,0,1,1.38-2.77q2.1-2.65,7.23-3c2.38-.18,4.06,0,5,.63A3.18,3.18,0,0,1,298,279a17.61,17.61,0,0,1-.33,2.24q-.4,1.86-1.45,7.94-2.35,13.78-3,23c-.07,1.08-.14,2.76-.2,5s.38,3.39,1.33,3.32q2.61-.19,8.25-11.44a183.23,183.23,0,0,0,7.53-17.33,2.52,2.52,0,0,1,2.32-1.73,2.25,2.25,0,0,1,2.1.79,2,2,0,0,1,.36,1.36q-.06.9-4.13,10.75Q300.5,327.64,291.28,328.32ZM267,318.73c1-.08,2.28-1.58,3.87-4.51A104.05,104.05,0,0,0,275.72,304q2.41-5.86,4.14-10.88a43.37,43.37,0,0,0,2-6.81,3.26,3.26,0,0,0-1.22-1.16,3.07,3.07,0,0,0-1.9-.44q-5.06.38-8.94,10.71a70.22,70.22,0,0,0-4.19,19.91C265.41,317.66,265.9,318.81,267,318.73Z"/><path class="cls-2" d="M317.59,362.13a9,9,0,0,1-7-2q-2.58-2.37-2.26-7.05.68-9.82,9.49-18.64a93.84,93.84,0,0,1,15.77-12.05L335,311q-.93,2.07-2.09,4.09-4.51,8.17-11.57,8.69c-3.15.23-5.59-.3-7.34-1.59a10.29,10.29,0,0,1-3.65-5.7,31.73,31.73,0,0,1-1.14-7.72c-.06-2.64,0-5.94.31-9.88q1.27-18.48,3.87-21.78c1.41-1.77,3.81-2.78,7.23-3q3.59-.27,5,.63a3.14,3.14,0,0,1,1.28,3.18,17.46,17.46,0,0,1-.32,2.24,181.58,181.58,0,0,0-4.14,27.24,17.4,17.4,0,0,0,.51,6.27c.51,1.61,1.45,2.36,2.81,2.26s2.76-1.38,4.17-3.84a47.86,47.86,0,0,0,3.93-9.37,95.4,95.4,0,0,0,3.47-16,69.27,69.27,0,0,1,1.3-8.15,11,11,0,0,1,2.67-5.17c1.3-1.37,3.4-2.16,6.28-2.38q5.69-.42,5.42,3.49l-1.1,11.91q-1.31,14-2.95,24.76,11.65-10.64,15.7-23.48a2.32,2.32,0,0,1,2.22-1.72,2.22,2.22,0,0,1,2.09.79,2,2,0,0,1,.36,1.36,3.88,3.88,0,0,1-.18,1,61.82,61.82,0,0,1-5.26,11.6q-5.48,9.68-16.24,18.08-1.33,7.15-2.84,12.49-3.52,12.58-9.62,20.59Q327.95,361.37,317.59,362.13Zm-.09-6.87c1.78-.14,3.65-1.29,5.61-3.47q6.45-7.32,9.49-22.81a81.7,81.7,0,0,0-9.76,7.83q-7.81,7.53-8.34,15.11a2.86,2.86,0,0,0,3,3.34Z"/><path class="cls-2" d="M191.41,77.88l-.51-.54-15,16-14.29-15.2-14.19,15.1-6.91-7.35L86.74,228.71A1.66,1.66,0,0,0,88.3,231h48.31a3.32,3.32,0,0,0,3.11-2.17l26.18-71.7a1.65,1.65,0,0,1,3.1,0l26.18,71.7a3.32,3.32,0,0,0,3.11,2.17H246.6a1.66,1.66,0,0,0,1.56-2.24Z"/><path class="cls-2" d="M161,30.14a1.68,1.68,0,0,1,0,1.15l-17.39,46.2,3.75,4,14.19-15.09,14.29,15.19L188,68.71,173.88,31.29a1.68,1.68,0,0,1,0-1.15L183.05,5a1.67,1.67,0,0,0-1-2.13L175.92.67a3.3,3.3,0,0,0-4.24,2L169,10a1.65,1.65,0,0,1-3.1,0l-2.68-7.33a3.29,3.29,0,0,0-4.24-2l-6.13,2.24a1.66,1.66,0,0,0-.94.86,1.69,1.69,0,0,0,0,1.27Z"/><path class="cls-1" d="M240.18,5a1.67,1.67,0,0,1,1-2.13L248.86.1a1.67,1.67,0,0,1,2.13,1l4.79,13.12,4.79-13.12a1.67,1.67,0,0,1,2.13-1l7.68,2.81a1.66,1.66,0,0,1,.94.86A1.6,1.6,0,0,1,271.37,5L262,30.72l17.06,45.34L274.46,81l-17-18.1L239.13,82.32l-6.41-6.82,16.85-44.78Z"/><path class="cls-1" d="M336.49,228.71,282.21,84.45l-7.75,8.25-17-18.1L239.13,94.07l-9.57-10.18-10.75,28.58a1.68,1.68,0,0,0,0,1.17l24.45,65a1.65,1.65,0,0,0,1.55,1.08h0a1.65,1.65,0,0,0,1.55-1.1l7.86-21.52a1.65,1.65,0,0,1,3.1,0l26.57,72.78a1.66,1.66,0,0,0,1.57,1.09h49.46a1.66,1.66,0,0,0,1.56-2.24"/><path class="cls-2" d="M97.86,72.56,91.17,95c-.65,2.16-4.09,1.43-3.44-.75q2.44-8.15,4.87-16.29-3.84,3.15-7.46,6.47l-6.51,21.8c-.65,2.15-4.09,1.42-3.44-.75L80,89.29C52.07,117,34.58,152.93,29.18,192.52c-.66,4.84-1.18,9.79-1.53,14.79l20,12.3c1.92,1.18.33,4.31-1.6,3.12l-10.32-6.34-7.36-4.52-1-.6c-.15,2.84-.25,5.69-.28,8.54l20.06,12.33c1.91,1.18.33,4.31-1.61,3.12l-10.32-6.34-7.35-4.52-.77-.47c0,2.72.13,5.45.29,8.17l21.46,11.23c2,1,.62,4.29-1.39,3.23l-10.73-5.62-7.65-4-1.39-.73a135.94,135.94,0,0,0,2.92,19.07c.5,2.19-2.82,3.32-3.33,1.12a141.14,141.14,0,0,1-3.07-20.21L4.73,248.69c-1.9,1.21-4-1.57-2.13-2.8L24,232.21c-.18-3.07-.27-6.14-.29-9.22L2.76,234.45c-2,1.08-3.92-1.85-1.93-2.94L23.7,219c0-2.81.14-5.63.29-8.44L3.23,221.92C1.25,223-.69,220.07,1.3,219l23-12.57c.39-5.34.95-10.63,1.66-15.81a179.87,179.87,0,0,1,52-104.11L61.68,90.18c-2.19.5-3.32-2.83-1.11-3.33l22.27-5q3.63-3.35,7.46-6.5L74.22,79c-2.19.5-3.32-2.83-1.11-3.33l22.48-5.1c1.18-.27,2.69.63,2.27,2"/><path class="cls-2" d="M387.07,256.63l-8.77-21.7c-.84-2.09,2.3-3.67,3.15-1.56q3.18,7.89,6.37,15.76c.69-3.23,1.29-6.47,1.79-9.7l-8.52-21.1c-.84-2.09,2.3-3.66,3.15-1.56q3.17,7.83,6.32,15.65c4.53-39.11-4.22-78.08-24.71-112.39-2.5-4.19-5.18-8.38-8-12.51l-23.3,2.87c-2.24.28-2.95-3.16-.7-3.44l12-1.48,8.57-1.06,1.13-.14c-1.66-2.31-3.36-4.59-5.12-6.84l-23.36,2.88c-2.23.28-2.95-3.16-.7-3.44l12-1.48L347,94.33l.89-.11q-2.6-3.16-5.33-6.21l-23.78,4.62c-2.2.43-3.16-3-.93-3.39l11.9-2.31,8.47-1.64,1.55-.3a137.23,137.23,0,0,0-14.19-13.07c-1.76-1.4.14-4.36,1.91-3a142,142,0,0,1,15,13.87q3.74-11,7.45-22c.73-2.13,4.14-1.29,3.41.86l-8.16,24q3.08,3.44,6,7l9.2-22c.86-2.07,4.21-1,3.34,1.09L353.61,95.93q2.59,3.33,5.05,6.77l9.12-21.84c.87-2.07,4.22-1,3.34,1.09Q366.08,94,361,106.1c3,4.4,5.89,8.89,8.57,13.38A179.88,179.88,0,0,1,394,233.27l10.37-13c1.4-1.75,4.36.14,3,1.91L393,240c-.51,3.25-1.09,6.49-1.78,9.73q5.14-6.44,10.28-12.89c1.41-1.75,4.37.14,2.95,1.91l-14.38,18c-.75.95-2.5,1.19-3-.17"/></g></g></svg>